# This file uses inches as units for non-parametric coordinates.

mtllib hand and wand prob fixed.mtl
g default
v 0.156793 -0.665502 -0.117467
v 0.432053 -0.665502 -0.177348
v 0.156793 -0.665502 0.091336
v 0.432053 -0.665502 0.031454
v 0.156793 0.587315 0.091336
v 0.432053 0.587315 0.031454
v 0.156793 0.587315 -0.117467
v 0.432053 0.587315 -0.177348
v 0.764006 0.382846 -0.279163
v 0.764006 -0.461033 -0.279163
v 0.764006 0.382846 -0.070360
v 0.764006 -0.461033 -0.070360
v 0.973053 0.120625 -0.443768
v 0.973053 -0.198811 -0.443768
v 0.973053 0.120625 -0.234965
v 0.973053 -0.198811 -0.234965
v -0.313014 0.587315 -0.141377
v -0.313014 -0.665502 -0.116981
v -0.313014 -0.665502 0.091821
v -0.313014 0.587315 0.091821
v 0.538426 0.948424 -0.083086
v 0.538426 0.948424 -0.291889
v 0.068620 0.948424 -0.291889
v 0.068620 0.948424 -0.083086
v -0.774314 0.302071 -0.152477
v -0.774314 -0.380258 -0.152477
v -0.774314 -0.380258 0.056325
v -0.774314 0.302071 0.056325
v -1.698004 0.242741 -0.207867
v -1.698004 -0.320927 -0.207867
v -1.698004 -0.320927 0.000936
v -1.698004 0.242741 0.000936
v 0.806902 0.391855 -0.227944
v 0.457880 0.604268 -0.126129
v 0.199893 0.604268 -0.101258
v 0.596353 0.980142 -0.242375
v 0.082909 0.980142 -0.242375
v -0.313550 0.604268 -0.089935
v -0.792772 0.307942 -0.101258
v -1.752347 0.246307 -0.156648
v -1.752347 -0.339260 -0.156648
v -0.792772 -0.400895 -0.101258
v -0.313550 -0.697220 -0.065762
v 0.174508 -0.697220 -0.066248
v 0.457880 -0.697220 -0.126129
v 0.806902 -0.484808 -0.227944
v 1.027395 -0.212399 -0.392549
v 1.027395 0.119446 -0.392549
v 0.800828 0.390579 -0.116704
v 0.454223 0.601867 -0.014890
v 0.199107 0.601867 0.009981
v 0.593467 0.975650 -0.130894
v 0.080886 0.975650 -0.130894
v -0.313474 0.601867 0.009981
v -0.790158 0.307111 0.009981
v -1.744652 0.245802 -0.045409
v -1.744652 -0.336664 -0.045409
v -0.790158 -0.397972 0.009981
v -0.313474 -0.692729 0.045477
v 0.171999 -0.692729 0.044991
v 0.454223 -0.692729 -0.014890
v 0.800828 -0.481441 -0.116704
v 1.019700 -0.210475 -0.281309
v 1.019700 0.119613 -0.281309
v 0.829186 0.396535 -0.178123
v 0.471297 0.613074 -0.076308
v 0.218755 0.613074 -0.051437
v 0.622917 0.996620 -0.193440
v 0.090333 0.996620 -0.193440
v -0.313829 0.613074 -0.051437
v -0.802361 0.310992 -0.051437
v -1.753699 0.248159 -0.106827
v -1.753699 -0.348783 -0.106827
v -0.802361 -0.411616 -0.051437
v -0.313829 -0.713698 -0.015941
v 0.183711 -0.713698 -0.016427
v 0.471297 -0.713698 -0.076308
v 0.829186 -0.497159 -0.178123
v 1.055626 -0.219458 -0.342728
v 1.055626 0.118834 -0.342727
v 0.310436 0.778387 0.014221
v -0.159370 0.778387 0.014221
v -0.154707 0.798042 -0.032713
v -0.151116 0.813180 -0.094585
v -0.153938 0.801284 -0.144049
v -0.159370 0.778387 -0.194582
v 0.310436 0.778387 -0.194582
v 0.359505 0.801284 -0.144049
v 0.381468 0.813180 -0.094585
v 0.357874 0.798042 -0.032713
v -0.098191 -0.563805 -0.421137
v -0.206533 -0.454202 -0.380108
v -0.223957 -0.412668 -0.227118
v -0.133040 -0.480737 -0.115159
v -0.024697 -0.590340 -0.156189
v -0.007273 -0.631874 -0.309178
v 1.683773 1.312362 -0.727527
v 1.575430 1.421965 -0.686497
v 1.558006 1.463499 -0.533508
v 1.648924 1.395429 -0.421549
v 1.757266 1.285826 -0.462579
v 1.774690 1.244293 -0.615568
v -0.115615 -0.522271 -0.268148
v 1.787264 1.488816 -0.586339
v 1.710226 1.357465 -0.691438
v 1.641105 1.442691 -0.655445
v 1.630560 1.471511 -0.550228
v 1.686338 1.420686 -0.466116
v 1.763545 1.328318 -0.488485
v 1.777214 1.293367 -0.609702
v 1.741535 1.410848 -0.648725
v 1.701955 1.461894 -0.626674
v 1.696595 1.478804 -0.565445
v 1.728494 1.449143 -0.516333
v 1.773206 1.393692 -0.528343
v 1.781244 1.371737 -0.600334
v 1.764508 1.450018 -0.617383
v 1.744859 1.475434 -0.606389
v 1.741321 1.483743 -0.575752
v 1.756773 1.468233 -0.550019
v 1.779929 1.439180 -0.556077
v 1.784193 1.429104 -0.593477
vt 0.375000 0.193635
vt 0.625000 0.193635
vt 0.625000 0.250000
vt 0.375000 0.250000
vt 0.625000 0.500000
vt 0.375000 0.500000
vt 0.625000 0.556365
vt 0.375000 0.556365
vt 0.375000 0.750000
vt 0.625000 0.750000
vt 0.625000 1.000000
vt 0.375000 1.000000
vt 0.625000 0.193635
vt 0.875000 0.193635
vt 0.875000 0.250000
vt 0.625000 0.250000
vt 0.125000 0.193635
vt 0.375000 0.193635
vt 0.375000 0.250000
vt 0.125000 0.250000
vt 0.625000 0.000000
vt 0.875000 0.000000
vt 0.875000 0.000000
vt 0.625000 0.000000
vt 0.875000 0.193635
vt 0.875000 0.250000
vt 0.875000 0.250000
vt 0.875000 0.193635
vt 0.625000 0.250000
vt 0.625000 0.193635
vt 0.875000 0.000000
vt 0.625000 0.000000
vt 0.125000 0.000000
vt 0.375000 0.000000
vt 0.375000 0.000000
vt 0.125000 0.000000
vt 0.375000 0.250000
vt 0.375000 0.193635
vt 0.125000 0.250000
vt 0.125000 0.250000
vt 0.125000 0.250000
vt 0.125000 0.193635
vt 0.125000 0.193635
vt 0.125000 0.250000
vt 0.125000 0.193635
vt 0.125000 0.193635
vt 0.125000 0.250000
vt 0.125000 0.000000
vt 0.125000 0.000000
vt 0.125000 0.193635
vt 0.125000 0.250000
vt 0.125000 0.193635
vt 0.375000 0.000000
vt 0.125000 0.000000
vt 0.375000 0.250000
vt 0.375000 0.193635
vt 0.125000 0.250000
vt 0.125000 0.193635
vt 0.375000 0.000000
vt 0.125000 0.000000
vt 0.875000 0.060304
vt 0.875000 0.060304
vt 0.375000 0.689696
vt 0.625000 0.689696
vt 0.125000 0.060304
vt 0.125000 0.060304
vt 0.125000 0.060304
vt 0.125000 0.060304
vt 0.125000 0.000000
vt 0.125000 0.000000
vt 0.125000 0.060304
vt 0.125000 0.060304
vt 0.125000 0.060304
vt 0.125000 0.060304
vt 0.375000 0.060304
vt 0.375000 0.060304
vt 0.375000 0.060304
vt 0.375000 0.060304
vt 0.625000 0.060304
vt 0.625000 0.060304
vt 0.625000 0.060304
vt 0.875000 0.060304
vt 0.875000 0.119424
vt 0.875000 0.119424
vt 0.625000 0.630576
vt 0.375000 0.630576
vt 0.125000 0.119424
vt 0.125000 0.119424
vt 0.125000 0.119424
vt 0.125000 0.119424
vt 0.125000 0.119424
vt 0.125000 0.119424
vt 0.125000 0.119424
vt 0.125000 0.119424
vt 0.375000 0.119424
vt 0.375000 0.119424
vt 0.375000 0.119424
vt 0.375000 0.119424
vt 0.625000 0.119424
vt 0.625000 0.119424
vt 0.625000 0.119424
vt 0.875000 0.119424
vt 0.375000 0.312500
vt 0.416667 0.312500
vt 0.416667 0.688440
vt 0.375000 0.688440
vt 0.458333 0.312500
vt 0.458333 0.688440
vt 0.500000 0.312500
vt 0.500000 0.688440
vt 0.541667 0.312500
vt 0.541667 0.688440
vt 0.583333 0.312500
vt 0.583333 0.688440
vt 0.625000 0.312500
vt 0.625000 0.688440
vt 0.421875 0.020934
vt 0.578125 0.020934
vt 0.500000 0.150000
vt 0.343750 0.156250
vt 0.421875 0.291566
vt 0.578125 0.291566
vt 0.656250 0.156250
vt 0.558156 0.942881
vt 0.578125 0.979066
vt 0.421875 0.979066
vt 0.446096 0.935177
vt 0.468538 0.894511
vt 0.534521 0.900053
vt 0.343750 0.843750
vt 0.393199 0.841772
vt 0.438205 0.839972
vt 0.421875 0.708434
vt 0.443004 0.743339
vt 0.466811 0.782670
vt 0.578125 0.708434
vt 0.561771 0.735451
vt 0.536611 0.777017
vt 0.656250 0.843750
vt 0.624891 0.842496
vt 0.574813 0.840493
vt 0.517178 0.868627
vt 0.484361 0.865839
vt 0.500000 0.837500
vt 0.468688 0.838752
vt 0.482781 0.809053
vt 0.519104 0.805940
vt 0.538156 0.839026
vn 0.035086 -0.908584 0.416226
vn 0.379323 -0.777659 0.501358
vn 0.255195 -0.042947 0.965935
vn 0.080182 -0.035902 0.996133
vn 0.253584 0.050978 0.965969
vn 0.076908 0.052244 0.995668
vn 0.361748 0.861925 0.355280
vn 0.722099 0.476876 0.501161
vn -0.050145 -0.047611 -0.997607
vn -0.225272 0.054342 -0.972779
vn -0.224661 -0.065025 -0.972265
vn -0.064533 -0.051208 -0.996601
vn 0.800254 -0.151935 0.580094
vn 0.809297 0.165689 0.563548
vn 0.637211 0.016508 0.770513
vn 0.636627 -0.014907 0.771028
vn -0.594468 0.733371 0.329812
vn -0.574037 -0.700027 0.424787
vn -0.108659 -0.094895 0.989539
vn -0.105756 0.099927 0.989359
vn -0.286553 0.076336 -0.955018
vn -0.288267 -0.075235 -0.954590
vn 0.363789 0.034169 0.930854
vn 0.682504 0.541859 0.490487
vn 0.364613 -0.032109 0.930605
vn 0.667830 -0.482088 0.567092
vn -0.463796 0.084036 -0.881947
vn -0.461907 -0.075825 -0.883681
vn 0.013523 -0.069653 -0.997480
vn 0.003618 0.006815 -0.999970
vn -0.041570 -0.051200 0.997823
vn -0.279313 -0.877680 0.389438
vn -0.051876 0.062585 0.996691
vn 0.134965 0.583083 0.801123
vn 0.373244 0.769773 0.517821
vn -0.182099 0.916776 0.355473
vn -0.050569 0.600693 0.797879
vn 0.725619 -0.645580 0.238125
vn 0.098565 0.385045 0.917619
vn -0.113925 -0.253691 -0.960553
vn 0.087539 -0.513042 -0.853888
vn -0.595686 0.786302 0.163974
vn -0.102794 0.477710 0.872483
vn -0.640538 0.741925 0.198138
vn 0.040017 -0.062872 -0.997219
vn 0.037900 0.052282 -0.997913
vn -0.082398 -0.047162 0.995483
vn -0.250567 -0.909535 0.331606
vn -0.088537 0.057082 0.994436
vn -0.260133 0.956338 0.133220
vn -0.001426 -0.108923 -0.994049
vn 0.002173 0.114960 -0.993368
vn 0.269756 0.901065 -0.339578
vn 0.486851 0.776312 -0.400394
vn 0.666869 0.269379 -0.694781
vn 0.623745 -0.762591 -0.171457
vn -0.240213 0.890642 -0.386077
vn 0.547533 0.542125 -0.637423
vn 0.237980 -0.113025 -0.964671
vn -0.087916 -0.243478 -0.965914
vn -0.610144 0.765569 -0.204031
vn -0.705193 0.683602 -0.188125
vn -0.216435 0.965582 -0.144248
vn -0.609390 0.706767 -0.359339
vn -0.570292 -0.688207 -0.448485
vn -0.199671 -0.918721 -0.340708
vn -0.251799 -0.878604 -0.405774
vn -0.035143 -0.911035 -0.410828
vn 0.184364 -0.864199 -0.468156
vn 0.412656 -0.753873 -0.511264
vn 0.666573 -0.401745 -0.627918
vn 0.715023 0.392731 -0.578364
vn 0.376783 0.924529 0.057280
vn 0.693118 0.717030 0.073858
vn 0.906026 0.421536 0.037725
vn 0.662267 -0.749101 -0.015818
vn 0.474404 0.878839 0.050821
vn -0.186691 0.982149 0.023034
vn -0.619467 0.784710 0.022151
vn -0.666372 0.744975 0.030990
vn -0.216196 0.976250 0.013948
vn -0.578493 0.814718 0.039762
vn -0.539345 -0.841003 0.042662
vn -0.229598 -0.972773 0.031586
vn -0.280188 -0.958904 0.044703
vn 0.006928 -0.998441 0.055381
vn 0.361861 -0.929558 0.070558
vn 0.690092 -0.718481 0.086936
vn 0.937068 -0.349045 -0.008490
vn 0.947417 0.319998 -0.001218
vn 0.095285 -0.275063 -0.956693
vn -0.583916 0.412040 -0.699475
vn -0.556263 0.440892 -0.704405
vn 0.122793 -0.245878 -0.961491
vn -0.693150 0.672415 0.259617
vn -0.666405 0.700761 0.254634
vn -0.123185 0.245688 0.961490
vn -0.096953 0.273519 0.956968
vn 0.556016 -0.441415 0.704272
vn 0.582564 -0.413711 0.699616
vn 0.665250 -0.701790 -0.254820
vn 0.692217 -0.673286 -0.259848
vn -0.683892 -0.720045 0.117588
vn 0.541278 0.308432 -0.782233
vn 0.029842 0.801083 -0.597809
vn 0.022053 0.809379 -0.586872
vn 0.531423 0.316904 -0.785597
vn -0.081763 0.989477 0.119369
vn -0.081609 0.989413 0.120007
vn 0.343492 0.663693 0.664474
vn 0.333023 0.672665 0.660770
vn 0.875154 0.150943 0.459697
vn 0.869152 0.157397 0.468828
vn 0.962093 -0.016933 -0.272194
vn 0.962194 -0.016981 -0.271836
vn 0.573663 0.279572 -0.769903
vn 0.043954 0.785525 -0.617267
vn 0.757821 0.645586 -0.094477
vn -0.078445 0.988001 0.133042
vn 0.376890 0.633728 0.675531
vn 0.890153 0.133986 0.435517
vn 0.966247 -0.018974 -0.256916
s 1
g polySurface1
usemtl initialShadingGroup
f 60/1/1 61/2/2 4/3/3 3/4/4
f 3/4/4 4/3/3 6/5/5 5/6/6
f 5/6/6 6/5/5 50/7/7 51/8/8
f 7/9/9 8/10/10 2/11/11 1/12/12
f 63/13/13 64/14/14 15/15/15 16/16/16
f 56/17/17 57/18/18 31/19/19 32/20/20
f 2/21/11 8/22/10 9/23/21 10/24/22
f 50/25/7 6/26/5 11/27/23 49/28/24
f 6/26/5 4/3/3 12/29/25 11/27/23
f 4/3/3 61/2/2 62/30/26 12/29/25
f 10/24/22 9/23/21 13/31/27 14/32/28
f 64/14/14 49/28/24 11/27/23 15/15/15
f 11/27/23 12/29/25 16/16/16 15/15/15
f 12/29/25 62/30/26 63/13/13 16/16/16
f 7/33/9 1/34/12 18/35/29 17/36/30
f 60/1/1 3/4/4 19/37/31 59/38/32
f 3/4/4 5/39/6 20/40/33 19/37/31
f 21/41/34 52/42/35 53/43/36 24/44/37
f 5/39/6 51/45/8 90/46/38 81/47/39
f 7/33/9 17/36/30 86/48/40 87/49/41
f 54/50/42 20/40/33 82/51/43 83/52/44
f 20/40/33 5/39/6 81/47/39 82/51/43
f 17/36/30 18/35/29 26/53/45 25/54/46
f 59/38/32 19/37/31 27/55/47 58/56/48
f 19/37/31 20/40/33 28/57/49 27/55/47
f 20/40/33 54/50/42 55/58/50 28/57/49
f 25/54/46 26/53/45 30/59/51 29/60/52
f 58/56/48 27/55/47 31/19/19 57/18/18
f 27/55/47 28/57/49 32/20/20 31/19/19
f 28/57/49 55/58/50 56/17/17 32/20/20
f 8/22/10 34/61/53 33/62/54 9/23/21
f 35/63/55 34/64/53 8/10/10 7/9/9
f 88/65/56 35/66/55 7/33/9 87/49/41
f 37/67/57 36/68/58 22/69/59 23/70/60
f 17/36/30 38/71/61 85/72/62 86/48/40
f 39/73/63 38/71/61 17/36/30 25/54/46
f 40/74/64 39/73/63 25/54/46 29/60/52
f 29/60/52 30/59/51 41/75/65 40/74/64
f 26/53/45 42/76/66 41/75/65 30/59/51
f 18/35/29 43/77/67 42/76/66 26/53/45
f 1/34/12 44/78/68 43/77/67 18/35/29
f 1/34/12 2/21/11 45/79/69 44/78/68
f 46/80/70 45/79/69 2/21/11 10/24/22
f 47/81/71 46/80/70 10/24/22 14/32/28
f 14/32/28 13/31/27 48/82/72 47/81/71
f 9/23/21 33/62/54 48/82/72 13/31/27
f 66/83/73 50/25/7 49/28/24 65/84/74
f 51/8/8 50/7/7 66/85/73 67/86/75
f 90/46/38 51/45/8 67/87/75 89/88/76
f 53/43/36 52/42/35 68/89/77 69/90/78
f 70/91/79 54/50/42 83/52/44 84/92/80
f 55/58/50 54/50/42 70/91/79 71/93/81
f 56/17/17 55/58/50 71/93/81 72/94/82
f 72/94/82 73/95/83 57/18/18 56/17/17
f 74/96/84 58/56/48 57/18/18 73/95/83
f 75/97/85 59/38/32 58/56/48 74/96/84
f 76/98/86 60/1/1 59/38/32 75/97/85
f 76/98/86 77/99/87 61/2/2 60/1/1
f 62/30/26 61/2/2 77/99/87 78/100/88
f 63/13/13 62/30/26 78/100/88 79/101/89
f 79/101/89 80/102/90 64/14/14 63/13/13
f 80/102/90 65/84/74 49/28/24 64/14/14
f 34/61/53 66/83/73 65/84/74 33/62/54
f 67/86/75 66/85/73 34/64/53 35/63/55
f 89/88/76 67/87/75 35/66/55 88/65/56
f 69/90/78 68/89/77 36/68/58 37/67/57
f 38/71/61 70/91/79 84/92/80 85/72/62
f 71/93/81 70/91/79 38/71/61 39/73/63
f 72/94/82 71/93/81 39/73/63 40/74/64
f 40/74/64 41/75/65 73/95/83 72/94/82
f 42/76/66 74/96/84 73/95/83 41/75/65
f 43/77/67 75/97/85 74/96/84 42/76/66
f 44/78/68 76/98/86 75/97/85 43/77/67
f 44/78/68 45/79/69 77/99/87 76/98/86
f 78/100/88 77/99/87 45/79/69 46/80/70
f 79/101/89 78/100/88 46/80/70 47/81/71
f 47/81/71 48/82/72 80/102/90 79/101/89
f 48/82/72 33/62/54 65/84/74 80/102/90
f 82/51/43 81/47/39 21/41/34 24/44/37
f 83/52/44 82/51/43 24/44/37 53/43/36
f 84/92/80 83/52/44 53/43/36 69/90/78
f 85/72/62 84/92/80 69/90/78 37/67/57
f 86/48/40 85/72/62 37/67/57 23/70/60
f 87/49/41 86/48/40 23/70/60 22/69/59
f 36/68/58 88/65/56 87/49/41 22/69/59
f 68/89/77 89/88/76 88/65/56 36/68/58
f 52/42/35 90/46/38 89/88/76 68/89/77
f 81/47/39 90/46/38 52/42/35 21/41/34
s 8
f 91/103/91 92/104/92 98/105/93 97/106/94
f 92/104/92 93/107/95 99/108/96 98/105/93
f 93/107/95 94/109/97 100/110/98 99/108/96
f 94/109/97 95/111/99 101/112/100 100/110/98
f 95/111/99 96/113/101 102/114/102 101/112/100
f 96/113/101 91/115/91 97/116/94 102/114/102
f 92/117/92 91/118/91 103/119/103
f 93/120/95 92/117/92 103/119/103
f 94/121/97 93/120/95 103/119/103
f 95/122/99 94/121/97 103/119/103
f 96/123/101 95/122/99 103/119/103
f 91/118/91 96/123/101 103/119/103
f 105/124/104 97/125/94 98/126/93 106/127/105 112/128/106 111/129/107
f 106/127/105 98/126/93 99/130/96 107/131/108 113/132/109 112/128/106
f 107/131/108 99/130/96 100/133/98 108/134/110 114/135/111 113/132/109
f 108/134/110 100/133/98 101/136/100 109/137/112 115/138/113 114/135/111
f 109/137/112 101/136/100 102/139/102 110/140/114 116/141/115 115/138/113
f 110/140/114 102/139/102 97/125/94 105/124/104 111/129/107 116/141/115
f 117/142/116 111/129/107 112/128/106 118/143/117 104/144/118
f 118/143/117 112/128/106 113/132/109 119/145/119 104/144/118
f 119/145/119 113/132/109 114/135/111 120/146/120 104/144/118
f 120/146/120 114/135/111 115/138/113 121/147/121 104/144/118
f 121/147/121 115/138/113 116/141/115 122/148/122 104/144/118
f 122/148/122 116/141/115 111/129/107 117/142/116 104/144/118
